<?xml version="1.0" encoding="UTF-8"?>
<svg xmlns="http://www.w3.org/2000/svg" xmlns:xlink="http://www.w3.org/1999/xlink" version="1.1" id="Ebene_1" x="0px" y="0px" viewBox="0 0 396.9 212.6" style="enable-background:new 0 0 396.9 212.6;" xml:space="preserve">
<style type="text/css">
	.st0{fill:#9E292B;}
	.st1{fill:#54616E;}
	.st2{fill-rule:evenodd;clip-rule:evenodd;fill:#54616E;}
</style>
<g>
	<path class="st0" d="M284.1,84.1c1.2,0,1.9,0.7,1.9,1.9v1.4c0,1.2-0.7,1.9-1.9,1.9h-29.7c-1.2,0-1.9-0.7-1.9-1.9V86   c0-1.2,0.7-1.9,1.9-1.9H284.1L284.1,84.1z"/>
	<path class="st0" d="M284.1,70.9c1.2,0,1.9,0.7,1.9,1.9v1.4c0,1.2-0.7,1.9-1.9,1.9h-29.7c-1.2,0-1.9-0.7-1.9-1.9v-1.4   c0-1.2,0.7-1.9,1.9-1.9H284.1L284.1,70.9z"/>
	<path class="st0" d="M284.1,57.6c1.2,0,1.9,0.7,1.9,1.9v1.4c0,1.2-0.7,1.9-1.9,1.9h-29.7c-1.2,0-1.9-0.7-1.9-1.9v-1.4   c0-1.2,0.7-1.9,1.9-1.9H284.1L284.1,57.6z"/>
	<path class="st0" d="M284.1,150c1.2,0,1.9,0.7,1.9,1.9v1.4c0,1.2-0.7,1.9-1.9,1.9h-29.7c-1.2,0-1.9-0.7-1.9-1.9v-1.4   c0-1.2,0.7-1.9,1.9-1.9H284.1L284.1,150z"/>
	<path class="st0" d="M284.1,136.8c1.2,0,1.9,0.7,1.9,1.9v1.4c0,1.2-0.7,1.9-1.9,1.9h-29.7c-1.2,0-1.9-0.7-1.9-1.9v-1.4   c0-1.2,0.7-1.9,1.9-1.9H284.1L284.1,136.8z"/>
	<path class="st1" d="M313.8,105h-9c-1.8,0-2.7,0.9-2.7,2.7v18.5H296v-18.7c0-5.2,2.5-7.7,7.7-7.7h10L313.8,105L313.8,105z"/>
	<path class="st1" d="M157.7,121.1l0,5.2h-8.9c-5.2,0-7.7-2.5-7.7-7.7V94.1l6,0v5.7h9.9v5.2h-9.9v13.4c0,1.8,0.9,2.7,2.7,2.7H157.7   L157.7,121.1z"/>
	<path class="st1" d="M337.2,121.1l0,5.2h-8.9c-5.2,0-7.7-2.5-7.7-7.7V94.1l6,0v5.7h9.9v5.2h-9.9v13.4c0,1.8,0.9,2.7,2.7,2.7H337.2   L337.2,121.1z"/>
	<path class="st2" d="M251.1,107.6c0-5.2,2.5-7.7,7.7-7.7h20.9c5.2,0,7.7,2.5,7.7,7.7v10.9c0,5.2-2.5,7.7-7.7,7.7h-20.9   c-5.2,0-7.7-2.5-7.7-7.7V107.6L251.1,107.6z M259.8,105c-1.8,0-2.7,0.9-2.7,2.7v10.7c0,1.8,0.9,2.7,2.7,2.7h18.9   c1.8,0,2.7-0.9,2.7-2.7v-10.7c0-1.8-0.9-2.7-2.7-2.7H259.8L259.8,105z"/>
	<path class="st2" d="M102.7,118.5c0,1.8,0.9,2.7,2.7,2.7h20.8v-6.7h-20.8c-1.8,0-2.7,0.9-2.7,2.7V118.5L102.7,118.5z M104.4,126.2   c-5.2,0-7.7-2.5-7.7-7.7v-1.4c0-5.2,2.5-7.7,7.7-7.7h21.8v-1.8c0-1.8-0.9-2.7-2.7-2.7h-21.1l0-5.1h22c5.2,0,7.7,2.5,7.7,7.7v18.7   H104.4L104.4,126.2z"/>
	<path class="st2" d="M168.8,118.5c0,1.8,0.9,2.7,2.7,2.7h20.8v-6.7h-20.8c-1.8,0-2.7,0.9-2.7,2.7V118.5L168.8,118.5z M170.5,126.2   c-5.2,0-7.7-2.5-7.7-7.7v-1.4c0-5.2,2.5-7.7,7.7-7.7h21.8v-1.8c0-1.8-0.9-2.7-2.7-2.7h-21.1l0-5.1h22c5.2,0,7.7,2.5,7.7,7.7v18.7   H170.5L170.5,126.2z"/>
	<path class="st2" d="M83.1,99.9v-9.5l6,0v35.9H61.4c-5.2,0-7.7-2.5-7.7-7.7v-10.9c0-5.2,2.5-7.7,7.7-7.7H83.1L83.1,99.9z    M83.1,121.1v-16H62.4c-1.8,0-2.7,0.9-2.7,2.7v10.7c0,1.8,0.9,2.7,2.7,2.7H83.1L83.1,121.1z"/>
	<path class="st2" d="M213.6,126.2v10l-6,0V99.9h27.7c5.2,0,7.7,2.5,7.7,7.7v10.9c0,5.2-2.5,7.7-7.7,7.7H213.6L213.6,126.2z    M213.6,105v16h20.7c1.8,0,2.7-0.9,2.7-2.7v-10.7c0-1.8-0.9-2.7-2.7-2.7H213.6L213.6,105z"/>
</g>
</svg>